<svg width="1106" height="1106" viewBox="0 0 1106 1106" fill="none" xmlns="http://www.w3.org/2000/svg">
<path d="M1036.31 0C1074.47 0 1105.4 30.9483 1105.4 69.125V1036.88C1105.4 1075.05 1074.47 1106 1036.31 1106H69.0879C30.9319 1106 0 1075.05 0 1036.88V69.125C0 30.9483 30.9319 0 69.0879 0H1036.31ZM693.884 228.617C548.74 166.416 385.522 203.331 284.938 320.62C187.974 433.69 166.46 606.347 252.567 740.428C295.36 807.069 353.434 855.452 427.298 884.398C467.42 900.116 509.024 907.965 552.959 907.218V729.643C553.039 729.643 553.12 729.644 553.2 729.645L553.183 729.624V729.396C556.017 729.584 558.851 729.916 561.689 729.916C614.17 729.946 666.65 729.933 719.131 729.933H730.279C730.279 693.565 730.223 658.695 730.297 623.826C730.353 599.854 730.567 575.89 730.714 551.922C730.758 551.918 730.802 551.914 730.846 551.91L730.715 551.744C730.715 551.742 730.716 551.74 730.716 551.737L730.707 551.733L730.715 551.744C730.714 551.803 730.714 551.863 730.714 551.922C727.286 552.209 723.854 552.727 720.426 552.727C694.093 552.755 667.76 552.766 641.427 552.77H553.183V729.396C553.112 729.391 553.042 729.385 552.972 729.381H552.971C552.965 729.381 552.96 729.38 552.954 729.38L552.959 729.385V729.643C490.927 729.311 442.864 702.577 407.09 652.471C356.94 582.227 365.638 452.855 470.9 395.229C537.527 358.757 617.327 371.245 676.146 426.413C708.194 456.472 725.19 493.652 729.171 537.118C729.615 542.005 730.27 546.884 730.836 551.763C730.798 551.755 730.759 551.746 730.721 551.738L730.854 551.916C730.849 551.865 730.842 551.814 730.836 551.763C732.46 552.1 734.076 552.689 735.704 552.689C791.095 552.763 846.494 552.784 901.894 552.763C903.539 552.763 905.184 552.2 906.729 551.924C908.638 437.764 848.855 295.031 693.884 228.617ZM730.331 906.75H906.66V729.946H730.331V906.75ZM730.279 729.946H730.331V729.933H730.279V729.946Z" fill="url(#paint0_linear_19553_24630)"/>
<defs>
<linearGradient id="paint0_linear_19553_24630" x1="15.8821" y1="940.1" x2="2173.19" y2="-1232.48" gradientUnits="userSpaceOnUse">
<stop offset="0.0240385" stop-color="#00B8B1"/>
<stop offset="1" stop-color="#06E5DA"/>
</linearGradient>
</defs>
</svg>
