<?xml version="1.0" encoding="UTF-8" standalone="no"?>
<!DOCTYPE svg PUBLIC "-//W3C//DTD SVG 1.1//EN" "http://www.w3.org/Graphics/SVG/1.1/DTD/svg11.dtd">
<svg width="100%" height="100%" viewBox="0 0 2494 807" version="1.1" xmlns="http://www.w3.org/2000/svg" xmlns:xlink="http://www.w3.org/1999/xlink" xml:space="preserve" xmlns:serif="http://www.serif.com/" style="fill-rule:evenodd;clip-rule:evenodd;stroke-linejoin:round;stroke-miterlimit:2;">
    <g transform="matrix(4.24727,0,0,4.24727,-1911.89,-3104.3)">
        <g transform="matrix(1.40332,0,0,1.40332,97.4166,-106.533)">
            <path d="M478.297,683.887L488.479,694.369L488.479,695.168L473.904,695.168L470.41,691.275C464.887,694.935 458.465,696.765 451.144,696.765C440.962,696.765 432.726,693.438 426.437,686.782C420.148,680.127 417.003,671.609 417.003,661.227C417.003,650.912 420.148,642.46 426.437,635.871C432.726,629.282 440.962,625.988 451.144,625.988C461.326,625.988 469.562,629.266 475.851,635.821C482.14,642.376 485.285,650.845 485.285,661.227C485.285,670.145 482.955,677.698 478.297,683.887ZM431.279,661.227C431.279,667.749 433.042,673.156 436.569,677.449C440.097,681.741 444.955,683.887 451.144,683.887C454.871,683.887 458.198,683.056 461.127,681.392L444.056,664.122L444.056,663.423L458.331,663.423L468.414,673.506C470.144,669.912 471.009,665.819 471.009,661.227C471.009,654.572 469.262,649.181 465.769,645.055C462.275,640.929 457.4,638.866 451.144,638.866C444.888,638.866 440.013,640.929 436.519,645.055C433.025,649.181 431.279,654.572 431.279,661.227Z" style="fill:rgb(245,255,252);"/>
            <path d="M495.068,695.168L495.068,627.585L543.483,627.585L543.483,639.764L509.043,639.764L509.043,654.938L541.087,654.938L541.087,666.817L509.043,666.817L509.043,695.168L495.068,695.168Z" style="fill:rgb(245,255,252);"/>
            <path d="M552.368,695.168L552.368,627.585L600.784,627.585L600.784,639.764L566.344,639.764L566.344,654.938L598.388,654.938L598.388,666.817L566.344,666.817L566.344,682.989L600.784,682.989L600.784,695.168L552.368,695.168Z" style="fill:rgb(245,255,252);"/>
            <path d="M605.975,695.168L605.975,694.369L629.234,661.227L606.973,628.284L606.973,627.585L623.145,627.585L637.719,650.545L652.394,627.585L668.666,627.585L668.666,628.284L646.205,661.227L669.664,694.369L669.664,695.168L653.392,695.168L637.719,671.908L622.146,695.168L605.975,695.168Z" style="fill:rgb(245,255,252);"/>
        </g>
        <g transform="matrix(0.264907,-0.45783,0.458832,0.264328,669.143,947.095)">
            <path d="M84.518,-419.5C67.889,-429.128 56.693,-447.115 56.693,-467.696C56.693,-488.277 67.889,-506.264 84.518,-515.893C101.148,-506.264 112.344,-488.277 112.344,-467.696C112.344,-447.115 101.148,-429.128 84.518,-419.5ZM138.198,-421.401C131.85,-432.427 131.385,-446.448 138.198,-458.249C145.012,-470.051 157.386,-476.658 170.109,-476.673C176.457,-465.647 176.922,-451.627 170.109,-439.826C163.295,-428.024 150.92,-421.417 138.198,-421.401ZM30.839,-421.401C18.116,-421.417 5.742,-428.024 -1.072,-439.826C-7.885,-451.627 -7.42,-465.647 -1.072,-476.673C11.65,-476.658 24.025,-470.051 30.839,-458.249C37.652,-446.448 37.187,-432.427 30.839,-421.401ZM5.646,-373.963C-11.006,-364.376 -32.182,-363.673 -50.006,-373.963C-67.83,-384.254 -77.809,-402.944 -77.832,-422.159C-61.179,-431.746 -40.004,-432.449 -22.18,-422.159C-4.356,-411.868 5.623,-393.178 5.646,-373.963ZM5.646,-282.889C5.623,-263.674 -4.356,-244.984 -22.18,-234.693C-40.004,-224.403 -61.179,-225.106 -77.832,-234.693C-77.809,-253.908 -67.83,-272.598 -50.006,-282.889C-32.182,-293.179 -11.006,-292.476 5.646,-282.889ZM-22.84,-328.426C-29.215,-317.416 -41.125,-310.002 -54.752,-310.002C-68.379,-310.002 -80.288,-317.416 -86.663,-328.426C-80.288,-339.436 -68.379,-346.85 -54.752,-346.85C-41.125,-346.85 -29.215,-339.436 -22.84,-328.426ZM84.518,-237.352C101.148,-227.724 112.344,-209.737 112.344,-189.156C112.344,-168.575 101.148,-150.588 84.518,-140.959C67.889,-150.588 56.693,-168.575 56.693,-189.156C56.693,-209.737 67.889,-227.724 84.518,-237.352ZM30.839,-235.451C37.187,-224.425 37.652,-210.404 30.839,-198.603C24.025,-186.801 11.65,-180.194 -1.072,-180.179C-7.42,-191.205 -7.885,-205.225 -1.072,-217.026C5.742,-228.828 18.116,-235.435 30.839,-235.451ZM138.198,-235.451C150.92,-235.435 163.295,-228.828 170.109,-217.026C176.922,-205.225 176.457,-191.205 170.109,-180.179C157.386,-180.194 145.012,-186.801 138.198,-198.603C131.385,-210.404 131.85,-224.425 138.198,-235.451ZM163.39,-282.889C180.043,-292.476 201.219,-293.179 219.043,-282.889C236.867,-272.598 246.845,-253.908 246.869,-234.693C230.216,-225.106 209.041,-224.403 191.217,-234.693C173.393,-244.984 163.414,-263.674 163.39,-282.889ZM191.877,-328.426C198.252,-339.436 210.161,-346.85 223.788,-346.85C237.416,-346.85 249.325,-339.436 255.7,-328.426C249.325,-317.416 237.416,-310.002 223.788,-310.002C210.161,-310.002 198.252,-317.416 191.877,-328.426Z" style="fill:rgb(167,225,0);"/>
        </g>
    </g>
</svg>
