<svg width="553" height="165" viewBox="0 0 553 165" fill="none" xmlns="http://www.w3.org/2000/svg">
<path d="M268.812 133.625C259.729 133.625 251.854 131.729 245.188 127.938C238.521 124.146 233.375 118.771 229.75 111.812C226.125 104.812 224.312 96.5208 224.312 86.9375V86.8125C224.312 77.2292 226.125 68.9583 229.75 62C233.417 55.0417 238.583 49.6667 245.25 45.875C251.917 42.0833 259.771 40.1875 268.812 40.1875C277.979 40.1875 285.896 42.0833 292.562 45.875C299.229 49.6667 304.354 55.0417 307.938 62C311.562 68.9583 313.375 77.2292 313.375 86.8125V86.9375C313.375 96.5208 311.562 104.812 307.938 111.812C304.354 118.771 299.229 124.146 292.562 127.938C285.938 131.729 278.021 133.625 268.812 133.625ZM268.812 114.625C273.229 114.625 277 113.5 280.125 111.25C283.292 108.958 285.729 105.75 287.438 101.625C289.146 97.4583 290 92.5625 290 86.9375V86.8125C290 81.1458 289.125 76.25 287.375 72.125C285.667 68 283.229 64.8125 280.062 62.5625C276.896 60.3125 273.146 59.1875 268.812 59.1875C264.604 59.1875 260.896 60.3125 257.688 62.5625C254.521 64.7708 252.062 67.9375 250.312 72.0625C248.604 76.1875 247.75 81.1042 247.75 86.8125V86.9375C247.75 92.6042 248.604 97.5208 250.312 101.688C252.062 105.812 254.521 109 257.688 111.25C260.854 113.5 264.562 114.625 268.812 114.625ZM290.375 139.562L261.562 98.375H282.312L311.125 139.562H290.375ZM324.562 132V41.8125H385.938V60.25H347.5V80.8125H382.438V98.375H347.5V132H324.562ZM396.188 132V41.8125H458V60.25H419.125V78.0625H455.688V95.3125H419.125V113.562H458V132H396.188ZM466.75 132L499.5 78.0625L494.312 96.9375V86.3125L466.812 41.8125H493.625L510.125 72.3125H520.75L505.938 81.375L527.188 41.8125H552.75L524 86.5625V97.1875L518.625 78.375L552.438 132H526.688L509.188 102.75H498.562L513.75 94L491.188 132H466.75Z" fill="url(#paint0_linear_18759_2050)"/>
<path d="M82.0596 122.827V163.989C71.8845 164.162 62.2494 162.345 52.9584 158.707C35.8522 152.007 22.4027 140.808 12.4923 125.383C-7.44937 94.3476 -2.46662 54.384 19.9894 28.2123C43.2835 1.06393 81.0823 -7.4806 114.697 6.91671C150.587 22.2892 164.432 55.3271 163.99 81.7509C163.632 81.8151 163.252 81.945 162.871 81.945C150.041 81.9496 137.211 81.945 124.382 81.9282C123.997 81.9282 123.613 81.7845 123.228 81.7081L123.26 81.7494C123.128 80.6076 122.974 79.4673 122.87 78.3239C121.948 68.2631 118.011 59.6574 110.589 52.6995C96.9665 39.9301 78.4854 37.0396 63.0554 45.4817C38.6785 58.8198 36.6643 88.7654 48.2785 105.024C56.5739 116.637 67.7231 122.826 82.1161 122.887L82.0626 122.826L82.0596 122.827Z" fill="url(#paint1_linear_18759_2050)"/>
<path d="M123.168 82.0015C123.134 87.5639 123.084 93.1247 123.072 98.6871C123.055 106.759 123.067 114.831 123.067 123.251H163.916V164.174H123.079V123.248C122.062 123.248 121.273 123.248 120.486 123.248C108.331 123.248 96.1774 123.251 84.0234 123.243C83.3489 123.243 82.6745 123.162 82 123.119L82.0535 123.18V82.24H84.1947C96.3915 82.24 108.588 82.243 120.785 82.2308C121.59 82.2308 122.394 82.107 123.199 82.0413L123.167 82L123.168 82.0015Z" fill="url(#paint2_linear_18759_2050)"/>
<defs>
<linearGradient id="paint0_linear_18759_2050" x1="219.467" y1="-54.2938" x2="428.029" y2="-259.854" gradientUnits="userSpaceOnUse">
<stop stop-color="#7C3AED"/>
<stop offset="1" stop-color="#003399"/>
</linearGradient>
<linearGradient id="paint1_linear_18759_2050" x1="2.35658" y1="139.401" x2="322.248" y2="-182.928" gradientUnits="userSpaceOnUse">
<stop stop-color="#7C3AED"/>
<stop offset="0.938715" stop-color="#003399"/>
</linearGradient>
<linearGradient id="paint2_linear_18759_2050" x1="83.1769" y1="151.848" x2="243.465" y2="-9.15297" gradientUnits="userSpaceOnUse">
<stop stop-color="#7C3AED"/>
<stop offset="0.938715" stop-color="#003399"/>
</linearGradient>
</defs>
</svg>
