<svg width="2716" height="1106" viewBox="0 0 2716 1106" fill="none" xmlns="http://www.w3.org/2000/svg">
<g clip-path="url(#clip0_19517_142561)">
<mask id="mask0_19517_142561" style="mask-type:luminance" maskUnits="userSpaceOnUse" x="0" y="0" width="2716" height="1106">
<path d="M2716 0H0V1106H2716V0Z" fill="white"/>
</mask>
<g mask="url(#mask0_19517_142561)">
<path d="M1036.31 0C1074.47 0 1105.4 30.9483 1105.4 69.125V1036.88C1105.4 1075.05 1074.47 1106 1036.31 1106H69.0879C30.9319 1106 0 1075.05 0 1036.88V69.125C0 30.9483 30.9319 0 69.0879 0H1036.31ZM693.884 228.617C548.74 166.416 385.522 203.331 284.938 320.62C187.974 433.69 166.46 606.347 252.567 740.428C295.36 807.069 353.434 855.452 427.298 884.398C467.42 900.116 509.024 907.965 552.959 907.218V729.643C553.039 729.643 553.12 729.644 553.2 729.645L553.183 729.624V729.396C556.017 729.584 558.851 729.916 561.689 729.916C614.17 729.946 666.65 729.933 719.131 729.933H730.279C730.279 693.565 730.223 658.695 730.297 623.826C730.353 599.854 730.567 575.89 730.714 551.922C730.758 551.918 730.802 551.914 730.846 551.91L730.715 551.744C730.715 551.742 730.716 551.74 730.716 551.737L730.707 551.733L730.715 551.744C730.714 551.803 730.714 551.863 730.714 551.922C727.286 552.209 723.854 552.727 720.426 552.727C694.093 552.755 667.76 552.766 641.427 552.77H553.183V729.396C553.112 729.391 553.042 729.385 552.972 729.381H552.971C552.965 729.38 552.96 729.38 552.954 729.38L552.959 729.385V729.643C490.927 729.311 442.864 702.577 407.09 652.471C356.94 582.227 365.638 452.855 470.9 395.229C537.527 358.757 617.327 371.245 676.146 426.413C708.194 456.471 725.19 493.652 729.171 537.118C729.615 542.005 730.27 546.884 730.836 551.763C730.797 551.755 730.759 551.746 730.721 551.738L730.854 551.916C730.849 551.865 730.842 551.814 730.836 551.763C732.46 552.1 734.076 552.689 735.704 552.689C791.095 552.763 846.494 552.784 901.894 552.763C903.539 552.763 905.184 552.2 906.729 551.924C908.638 437.764 848.855 295.031 693.884 228.617ZM730.331 906.75H906.66V729.946H730.331V906.75ZM730.279 729.946H730.331V729.933H730.279V729.946Z" fill="url(#paint0_linear_19517_142561)"/>
<path d="M1488.89 776.037C1449.67 776.037 1415.66 767.845 1386.88 751.467C1358.09 735.084 1335.87 711.863 1320.22 681.798C1304.57 651.555 1296.74 615.736 1296.74 574.334V573.79C1296.74 532.388 1304.57 496.655 1320.22 466.594C1336.05 436.534 1358.36 413.311 1387.15 396.929C1415.93 380.548 1449.85 372.357 1488.89 372.357C1528.47 372.357 1562.66 380.548 1591.44 396.929C1620.23 413.311 1642.36 436.534 1657.83 466.594C1673.48 496.655 1681.31 532.388 1681.31 573.79V574.334C1681.31 615.736 1673.48 651.555 1657.83 681.798C1642.36 711.863 1620.23 735.084 1591.44 751.467C1562.84 767.845 1528.65 776.037 1488.89 776.037ZM1488.89 693.951C1507.96 693.951 1524.24 689.09 1537.74 679.37C1551.41 669.467 1561.93 655.608 1569.31 637.787C1576.69 619.784 1580.38 598.632 1580.38 574.334V573.79C1580.38 549.311 1576.6 528.159 1569.04 510.337C1561.67 492.516 1551.14 478.743 1537.46 469.022C1523.8 459.302 1507.6 454.446 1488.89 454.446C1470.72 454.446 1454.71 459.302 1440.85 469.022C1427.18 478.566 1416.56 492.248 1409 510.065C1401.63 527.891 1397.94 549.129 1397.94 573.79V574.334C1397.94 598.813 1401.63 620.056 1409 638.059C1416.56 655.876 1427.18 669.649 1440.85 679.37C1454.52 689.09 1470.53 693.951 1488.89 693.951ZM1581.99 801.686L1457.58 623.746H1547.18L1671.59 801.686H1581.99ZM1729.61 769.016V379.378H1994.63V459.034H1828.66V547.868H1979.52V623.746H1828.66V769.016H1729.61ZM2038.89 769.016V379.378H2305.79V459.034H2137.93V535.987H2295.81V610.512H2137.93V689.358H2305.79V769.016H2038.89ZM2343.58 769.016L2484.99 535.987L2462.59 617.537V571.63L2343.84 379.378H2459.62L2530.87 511.145H2576.75L2512.79 550.3L2604.54 379.378H2714.92L2590.78 572.71V618.617L2567.57 537.339L2713.57 769.016H2602.39L2526.82 642.647H2480.94L2546.52 604.844L2449.1 769.016H2343.58Z" fill="url(#paint1_linear_19517_142561)"/>
</g>
</g>
<defs>
<linearGradient id="paint0_linear_19517_142561" x1="15.8821" y1="940.1" x2="2173.19" y2="-1232.48" gradientUnits="userSpaceOnUse">
<stop offset="0.0240385" stop-color="#00B8B1"/>
<stop offset="1" stop-color="#06E5DA"/>
</linearGradient>
<linearGradient id="paint1_linear_19517_142561" x1="1298.97" y1="688.226" x2="1586.71" y2="-560.09" gradientUnits="userSpaceOnUse">
<stop offset="0.0240385" stop-color="#00B8B1"/>
<stop offset="1" stop-color="#06E5DA"/>
</linearGradient>
<clipPath id="clip0_19517_142561">
<rect width="2716" height="1106" fill="white"/>
</clipPath>
</defs>
</svg>
